<?xml version="1.0" encoding="utf-8" standalone="no"?>
<!DOCTYPE svg PUBLIC "-//W3C//DTD SVG 1.1//EN"
  "http://www.w3.org/Graphics/SVG/1.1/DTD/svg11.dtd">
<!-- Created with matplotlib (https://matplotlib.org/) -->
<svg height="648pt" version="1.1" viewBox="0 0 1152 648" width="1152pt" xmlns="http://www.w3.org/2000/svg" xmlns:xlink="http://www.w3.org/1999/xlink">
 <defs>
  <style type="text/css">
*{stroke-linecap:butt;stroke-linejoin:round;}
  </style>
 </defs>
 <g id="figure_1">
  <g id="patch_1">
   <path d="M 0 648 
L 1152 648 
L 1152 0 
L 0 0 
z
" style="fill:#ffffff;"/>
  </g>
  <g id="axes_1">
   <g id="patch_2">
    <path d="M 144 567 
L 1036.8 567 
L 1036.8 77.76 
L 144 77.76 
z
" style="fill:#ffffff;"/>
   </g>
   <g id="patch_3">
    <path clip-path="url(#p5012da1926)" d="M 184.581818 567 
L 234.419139 567 
L 234.419139 319.711891 
L 184.581818 319.711891 
z
" style="fill:#c6dbef;"/>
   </g>
   <g id="patch_4">
    <path clip-path="url(#p5012da1926)" d="M 326.974163 567 
L 376.811483 567 
L 376.811483 482.401437 
L 326.974163 482.401437 
z
" style="fill:#c6dbef;"/>
   </g>
   <g id="patch_5">
    <path clip-path="url(#p5012da1926)" d="M 469.366507 567 
L 519.203828 567 
L 519.203828 214.289066 
L 469.366507 214.289066 
z
" style="fill:#c6dbef;"/>
   </g>
   <g id="patch_6">
    <path clip-path="url(#p5012da1926)" d="M 611.758852 567 
L 661.596172 567 
L 661.596172 371.772546 
L 611.758852 371.772546 
z
" style="fill:#c6dbef;"/>
   </g>
   <g id="patch_7">
    <path clip-path="url(#p5012da1926)" d="M 754.151196 567 
L 803.988517 567 
L 803.988517 526.652993 
L 754.151196 526.652993 
z
" style="fill:#c6dbef;"/>
   </g>
   <g id="patch_8">
    <path clip-path="url(#p5012da1926)" d="M 896.543541 567 
L 946.380861 567 
L 946.380861 505.828731 
L 896.543541 505.828731 
z
" style="fill:#c6dbef;"/>
   </g>
   <g id="patch_9">
    <path clip-path="url(#p5012da1926)" d="M 234.419139 567 
L 284.256459 567 
L 284.256459 101.057143 
L 234.419139 101.057143 
z
" style="fill:#6aaed6;"/>
   </g>
   <g id="patch_10">
    <path clip-path="url(#p5012da1926)" d="M 376.811483 567 
L 426.648804 567 
L 426.648804 422.531684 
L 376.811483 422.531684 
z
" style="fill:#6aaed6;"/>
   </g>
   <g id="patch_11">
    <path clip-path="url(#p5012da1926)" d="M 519.203828 567 
L 569.041148 567 
L 569.041148 154.419314 
L 519.203828 154.419314 
z
" style="fill:#6aaed6;"/>
   </g>
   <g id="patch_12">
    <path clip-path="url(#p5012da1926)" d="M 661.596172 567 
L 711.433493 567 
L 711.433493 337.933121 
L 661.596172 337.933121 
z
" style="fill:#6aaed6;"/>
   </g>
   <g id="patch_13">
    <path clip-path="url(#p5012da1926)" d="M 803.988517 567 
L 853.825837 567 
L 853.825837 494.115084 
L 803.988517 494.115084 
z
" style="fill:#6aaed6;"/>
   </g>
   <g id="patch_14">
    <path clip-path="url(#p5012da1926)" d="M 946.380861 567 
L 996.218182 567 
L 996.218182 486.305986 
L 946.380861 486.305986 
z
" style="fill:#6aaed6;"/>
   </g>
   <g id="matplotlib.axis_1">
    <g id="xtick_1">
     <g id="line2d_1">
      <defs>
       <path d="M 0 0 
L 0 3.5 
" id="m33acb154ab" style="stroke:#000000;stroke-width:0.8;"/>
      </defs>
      <g>
       <use style="stroke:#000000;stroke-width:0.8;" x="234.419139" xlink:href="#m33acb154ab" y="567"/>
      </g>
     </g>
     <g id="text_1">
      <!-- 28 -->
      <defs>
       <path d="M 4.6875 3.90625 
Q 5.078125 9.765625 10.15625 14.453125 
Q 15.234375 19.140625 23.046875 29.09375 
Q 30.859375 39.0625 33.203125 44.53125 
Q 35.546875 50 34.953125 53.90625 
Q 34.375 57.8125 31.25 60.34375 
Q 28.125 62.890625 24.015625 62.5 
Q 19.921875 62.109375 16.203125 59.375 
Q 12.5 56.640625 10.546875 51.171875 
L 3.125 52.34375 
Q 6.25 61.328125 11.125 65.421875 
Q 16.015625 69.53125 22.65625 69.921875 
Q 26.5625 70.3125 29.6875 69.71875 
Q 32.8125 69.140625 36.125 66.984375 
Q 39.453125 64.84375 41.59375 60.546875 
Q 43.75 56.25 43.15625 50.1875 
Q 42.578125 44.140625 37.109375 35.734375 
Q 31.640625 27.34375 16.015625 9.375 
L 44.140625 9.375 
L 44.140625 2.34375 
L 4.6875 2.34375 
z
" id="SimHei-50"/>
       <path d="M 2.734375 16.796875 
Q 2.734375 26.171875 5.078125 30.65625 
Q 7.421875 35.15625 12.890625 37.890625 
Q 8.203125 40.625 6.640625 43.9375 
Q 5.078125 47.265625 4.875 51.5625 
Q 4.6875 55.859375 6.046875 58.984375 
Q 7.421875 62.109375 10.15625 64.84375 
Q 12.890625 67.578125 16.203125 68.546875 
Q 19.53125 69.53125 23.4375 69.53125 
Q 27.34375 69.53125 30.46875 68.75 
Q 33.59375 67.96875 37.109375 65.421875 
Q 40.625 62.890625 42.1875 58.203125 
Q 43.75 53.515625 41.984375 47.265625 
Q 40.234375 41.015625 32.8125 37.5 
Q 39.453125 35.546875 42.1875 31.4375 
Q 44.921875 27.34375 44.921875 21.484375 
Q 44.921875 15.625 43.15625 12.109375 
Q 41.40625 8.59375 39.25 6.25 
Q 37.109375 3.90625 33.390625 2.53125 
Q 29.6875 1.171875 24.015625 1.171875 
Q 18.359375 1.171875 14.25 2.53125 
Q 10.15625 3.90625 7.421875 6.640625 
Q 4.6875 9.375 3.703125 13.078125 
Q 2.734375 16.796875 2.734375 26.171875 
z
M 10.9375 26.5625 
Q 10.546875 17.1875 12.296875 13.671875 
Q 14.0625 10.15625 18.75 9.171875 
Q 23.4375 8.203125 28.515625 9.375 
Q 33.59375 10.546875 35.546875 14.84375 
Q 37.5 19.140625 36.90625 23.4375 
Q 36.328125 27.734375 32.03125 30.65625 
Q 27.734375 33.59375 22.65625 33.203125 
Q 17.578125 32.8125 14.25 29.6875 
Q 10.9375 26.5625 10.546875 17.1875 
z
M 12.109375 56.25 
Q 12.109375 48.4375 14.84375 44.921875 
Q 17.578125 41.40625 23.4375 41.40625 
Q 29.296875 41.40625 32.21875 44.921875 
Q 35.15625 48.4375 34.953125 53.3125 
Q 34.765625 58.203125 31.4375 60.546875 
Q 28.125 62.890625 22.453125 62.5 
Q 16.796875 62.109375 14.453125 59.171875 
Q 12.109375 56.25 12.109375 48.4375 
z
" id="SimHei-56"/>
      </defs>
      <g transform="translate(229.419139 580.875)scale(0.1 -0.1)">
       <use xlink:href="#SimHei-50"/>
       <use x="50" xlink:href="#SimHei-56"/>
      </g>
     </g>
    </g>
    <g id="xtick_2">
     <g id="line2d_2">
      <g>
       <use style="stroke:#000000;stroke-width:0.8;" x="376.811483" xlink:href="#m33acb154ab" y="567"/>
      </g>
     </g>
     <g id="text_2">
      <!-- 38 -->
      <defs>
       <path d="M 3.90625 19.140625 
L 10.9375 20.3125 
Q 12.5 15.234375 16.015625 11.90625 
Q 19.53125 8.59375 24.796875 8.78125 
Q 30.078125 8.984375 33.203125 13.078125 
Q 36.328125 17.1875 35.9375 22.453125 
Q 35.546875 27.734375 31.828125 30.65625 
Q 28.125 33.59375 19.921875 34.765625 
L 19.921875 39.84375 
Q 28.125 40.625 31.828125 44.140625 
Q 35.546875 47.65625 35.15625 53.3125 
Q 34.765625 58.984375 30.078125 61.515625 
Q 25.390625 64.0625 20.109375 62.109375 
Q 14.84375 60.15625 11.71875 51.171875 
L 4.6875 52.34375 
Q 7.03125 59.375 11.125 64.0625 
Q 15.234375 68.75 22.265625 69.53125 
Q 29.296875 70.3125 34.5625 67.765625 
Q 39.84375 65.234375 41.984375 59.953125 
Q 44.140625 54.6875 42.578125 48.4375 
Q 41.015625 42.1875 33.59375 37.5 
Q 39.0625 35.15625 41.984375 30.46875 
Q 44.921875 25.78125 43.9375 18.15625 
Q 42.96875 10.546875 37.109375 5.859375 
Q 31.25 1.171875 23.828125 1.359375 
Q 16.40625 1.5625 10.9375 6.046875 
Q 5.46875 10.546875 3.90625 19.140625 
z
" id="SimHei-51"/>
      </defs>
      <g transform="translate(371.811483 580.875)scale(0.1 -0.1)">
       <use xlink:href="#SimHei-51"/>
       <use x="50" xlink:href="#SimHei-56"/>
      </g>
     </g>
    </g>
    <g id="xtick_3">
     <g id="line2d_3">
      <g>
       <use style="stroke:#000000;stroke-width:0.8;" x="519.203828" xlink:href="#m33acb154ab" y="567"/>
      </g>
     </g>
     <g id="text_3">
      <!-- 50008168 -->
      <defs>
       <path d="M 8.59375 20.703125 
Q 11.328125 10.15625 17.96875 8.984375 
Q 24.609375 7.8125 28.703125 10.34375 
Q 32.8125 12.890625 34.5625 16.984375 
Q 36.328125 21.09375 36.125 26.171875 
Q 35.9375 31.25 33.390625 34.765625 
Q 30.859375 38.28125 26.953125 39.453125 
Q 23.046875 40.625 18.15625 39.453125 
Q 13.28125 38.28125 10.15625 33.984375 
L 3.515625 34.765625 
Q 4.296875 37.109375 10.9375 68.359375 
L 41.796875 68.359375 
L 41.796875 61.328125 
L 16.796875 61.328125 
Q 14.84375 50.78125 12.890625 44.53125 
Q 18.75 47.265625 23.828125 47.0625 
Q 28.90625 46.875 33.59375 44.71875 
Q 38.28125 42.578125 40.421875 38.859375 
Q 42.578125 35.15625 43.546875 31.4375 
Q 44.53125 27.734375 44.328125 23.4375 
Q 44.140625 19.140625 42.578125 14.640625 
Q 41.015625 10.15625 37.890625 7.21875 
Q 34.765625 4.296875 30.265625 2.53125 
Q 25.78125 0.78125 19.921875 1.171875 
Q 14.0625 1.5625 8.78125 5.46875 
Q 3.515625 9.375 1.5625 18.75 
z
" id="SimHei-53"/>
       <path d="M 3.125 29.296875 
Q 3.90625 50 6.4375 56.046875 
Q 8.984375 62.109375 13.671875 66.015625 
Q 18.359375 69.921875 25.1875 69.921875 
Q 32.03125 69.921875 37.109375 64.25 
Q 42.1875 58.59375 43.75 50 
Q 45.3125 41.40625 44.71875 30.265625 
Q 44.140625 19.140625 40.8125 12.109375 
Q 37.5 5.078125 30.859375 2.34375 
Q 24.21875 -0.390625 17.578125 2.921875 
Q 10.9375 6.25 8.203125 11.71875 
Q 5.46875 17.1875 4.296875 23.234375 
Q 3.125 29.296875 3.90625 50 
z
M 12.890625 52.734375 
Q 10.546875 31.25 12.5 22.84375 
Q 14.453125 14.453125 18.9375 10.9375 
Q 23.4375 7.421875 28.125 9.5625 
Q 32.8125 11.71875 34.953125 18.15625 
Q 37.109375 24.609375 37.109375 32.21875 
Q 37.109375 39.84375 36.515625 46.09375 
Q 35.9375 52.34375 33 57.421875 
Q 30.078125 62.5 25.1875 62.6875 
Q 20.3125 62.890625 16.59375 57.8125 
Q 12.890625 52.734375 10.546875 31.25 
z
" id="SimHei-48"/>
       <path d="M 21.875 56.25 
Q 16.796875 51.171875 8.984375 46.484375 
L 8.984375 53.90625 
Q 18.75 60.546875 25 69.53125 
L 29.6875 69.53125 
L 29.6875 2.34375 
L 21.875 2.34375 
z
" id="SimHei-49"/>
       <path d="M 3.515625 19.53125 
Q 4.296875 30.859375 6.046875 34.765625 
Q 7.8125 38.671875 11.328125 44.53125 
L 27.34375 69.53125 
L 36.328125 69.53125 
L 19.921875 43.75 
Q 30.46875 46.484375 36.71875 42.96875 
Q 42.96875 39.453125 45.109375 34.953125 
Q 47.265625 30.46875 47.453125 25.1875 
Q 47.65625 19.921875 45.890625 14.84375 
Q 44.140625 9.765625 39.640625 5.65625 
Q 35.15625 1.5625 27.140625 1.171875 
Q 19.140625 0.78125 13.46875 4.09375 
Q 7.8125 7.421875 5.65625 13.46875 
Q 3.515625 19.53125 4.296875 30.859375 
z
M 12.5 16.015625 
Q 19.53125 8.59375 25.390625 8.203125 
Q 31.25 7.8125 35.15625 12.109375 
Q 39.0625 16.40625 39.0625 24.609375 
Q 39.0625 32.8125 34.171875 35.9375 
Q 29.296875 39.0625 23.234375 38.28125 
Q 17.1875 37.5 14.453125 32.421875 
Q 11.71875 27.34375 12.109375 21.671875 
Q 12.5 16.015625 19.53125 8.59375 
z
" id="SimHei-54"/>
      </defs>
      <g transform="translate(499.203828 580.875)scale(0.1 -0.1)">
       <use xlink:href="#SimHei-53"/>
       <use x="50" xlink:href="#SimHei-48"/>
       <use x="100" xlink:href="#SimHei-48"/>
       <use x="150" xlink:href="#SimHei-48"/>
       <use x="200" xlink:href="#SimHei-56"/>
       <use x="250" xlink:href="#SimHei-49"/>
       <use x="300" xlink:href="#SimHei-54"/>
       <use x="350" xlink:href="#SimHei-56"/>
      </g>
     </g>
    </g>
    <g id="xtick_4">
     <g id="line2d_4">
      <g>
       <use style="stroke:#000000;stroke-width:0.8;" x="661.596172" xlink:href="#m33acb154ab" y="567"/>
      </g>
     </g>
     <g id="text_4">
      <!-- 50014815 -->
      <defs>
       <path d="M 31.25 17.1875 
L 1.171875 17.1875 
L 1.171875 23.828125 
L 32.8125 69.53125 
L 38.671875 69.53125 
L 38.671875 23.828125 
L 48.046875 23.828125 
L 48.046875 17.1875 
L 38.671875 17.1875 
L 38.671875 2.34375 
L 31.25 2.34375 
z
M 31.25 23.828125 
L 31.25 54.6875 
L 9.375 23.828125 
z
" id="SimHei-52"/>
      </defs>
      <g transform="translate(641.596172 580.875)scale(0.1 -0.1)">
       <use xlink:href="#SimHei-53"/>
       <use x="50" xlink:href="#SimHei-48"/>
       <use x="100" xlink:href="#SimHei-48"/>
       <use x="150" xlink:href="#SimHei-49"/>
       <use x="200" xlink:href="#SimHei-52"/>
       <use x="250" xlink:href="#SimHei-56"/>
       <use x="300" xlink:href="#SimHei-49"/>
       <use x="350" xlink:href="#SimHei-53"/>
      </g>
     </g>
    </g>
    <g id="xtick_5">
     <g id="line2d_5">
      <g>
       <use style="stroke:#000000;stroke-width:0.8;" x="803.988517" xlink:href="#m33acb154ab" y="567"/>
      </g>
     </g>
     <g id="text_5">
      <!-- 50022520 -->
      <g transform="translate(783.988517 580.875)scale(0.1 -0.1)">
       <use xlink:href="#SimHei-53"/>
       <use x="50" xlink:href="#SimHei-48"/>
       <use x="100" xlink:href="#SimHei-48"/>
       <use x="150" xlink:href="#SimHei-50"/>
       <use x="200" xlink:href="#SimHei-50"/>
       <use x="250" xlink:href="#SimHei-53"/>
       <use x="300" xlink:href="#SimHei-50"/>
       <use x="350" xlink:href="#SimHei-48"/>
      </g>
     </g>
    </g>
    <g id="xtick_6">
     <g id="line2d_6">
      <g>
       <use style="stroke:#000000;stroke-width:0.8;" x="946.380861" xlink:href="#m33acb154ab" y="567"/>
      </g>
     </g>
     <g id="text_6">
      <!-- 122650008 -->
      <g transform="translate(923.880861 580.875)scale(0.1 -0.1)">
       <use xlink:href="#SimHei-49"/>
       <use x="50" xlink:href="#SimHei-50"/>
       <use x="100" xlink:href="#SimHei-50"/>
       <use x="150" xlink:href="#SimHei-54"/>
       <use x="200" xlink:href="#SimHei-53"/>
       <use x="250" xlink:href="#SimHei-48"/>
       <use x="300" xlink:href="#SimHei-48"/>
       <use x="350" xlink:href="#SimHei-48"/>
       <use x="400" xlink:href="#SimHei-56"/>
      </g>
     </g>
    </g>
    <g id="text_7">
     <!-- 产品大类 -->
     <defs>
      <path d="M 78.90625 57.8125 
Q 76.953125 55.46875 74.40625 50.96875 
Q 71.875 46.484375 69.921875 42.578125 
L 82.03125 42.578125 
Q 90.234375 42.578125 92.96875 42.96875 
L 92.96875 35.15625 
Q 89.84375 35.546875 82.8125 35.546875 
L 23.828125 35.546875 
Q 23.828125 4.6875 8.984375 -9.765625 
Q 7.421875 -6.640625 3.125 -3.90625 
Q 13.28125 7.421875 14.84375 19.71875 
Q 16.40625 32.03125 15.625 42.578125 
L 61.71875 42.578125 
Q 66.796875 53.125 69.140625 62.109375 
Q 74.21875 59.765625 78.90625 57.8125 
z
M 54.6875 82.421875 
Q 55.46875 79.6875 57.8125 69.921875 
L 77.34375 69.921875 
Q 84.375 69.921875 90.625 70.3125 
L 90.625 62.890625 
Q 84.375 63.28125 78.515625 63.28125 
L 31.25 63.28125 
Q 25.390625 63.28125 16.40625 62.890625 
L 16.40625 70.3125 
Q 25.78125 69.921875 28.515625 69.921875 
L 48.828125 69.921875 
Q 47.65625 75 45.703125 80.46875 
Q 50.390625 81.640625 54.6875 82.421875 
z
M 37.109375 61.71875 
Q 41.796875 55.46875 46.09375 47.265625 
Q 42.1875 45.703125 37.890625 43.359375 
Q 34.375 51.5625 29.6875 57.421875 
Q 33.59375 59.765625 37.109375 61.71875 
z
" id="SimHei-20135"/>
      <path d="M 76.5625 76.171875 
Q 76.171875 69.140625 76.171875 60.15625 
Q 76.171875 51.5625 76.5625 44.921875 
L 23.046875 44.921875 
Q 23.828125 51.5625 23.828125 60.546875 
Q 23.828125 69.53125 23.046875 76.171875 
L 76.5625 76.171875 
z
M 91.40625 35.9375 
Q 91.015625 28.90625 91.015625 14.453125 
Q 91.015625 0.390625 91.40625 -5.46875 
L 83.984375 -5.46875 
L 83.984375 0 
L 61.71875 0 
L 61.71875 -6.640625 
L 54.296875 -6.640625 
Q 54.6875 0 54.6875 14.453125 
Q 54.6875 28.90625 54.296875 35.9375 
L 91.40625 35.9375 
z
M 37.5 -6.25 
L 37.5 0 
L 16.40625 0 
L 16.40625 -6.640625 
L 8.984375 -6.640625 
Q 9.375 0 9.375 14.453125 
Q 9.375 29.296875 8.984375 35.9375 
L 44.921875 35.9375 
Q 44.140625 29.296875 44.140625 17.1875 
Q 44.140625 5.46875 44.921875 -6.25 
z
M 69.140625 51.5625 
L 69.140625 69.53125 
L 30.859375 69.53125 
L 30.859375 51.5625 
z
M 83.984375 7.03125 
L 83.984375 28.90625 
L 61.71875 28.90625 
L 61.71875 7.03125 
z
M 37.5 7.03125 
L 37.5 28.90625 
L 16.40625 28.90625 
L 16.40625 7.03125 
z
" id="SimHei-21697"/>
      <path d="M 45.3125 53.125 
Q 45.703125 66.796875 45.5 71.484375 
Q 45.3125 76.171875 44.921875 80.46875 
Q 49.609375 79.6875 55.46875 79.296875 
Q 54.296875 75.390625 53.703125 67.96875 
Q 53.125 60.546875 53.125 53.125 
L 73.046875 53.125 
Q 83.59375 53.125 92.578125 53.90625 
L 92.578125 45.3125 
Q 84.765625 45.703125 76.5625 45.703125 
L 53.515625 45.703125 
Q 55.078125 39.0625 58.984375 32.21875 
Q 62.890625 25.390625 66.984375 20.109375 
Q 71.09375 14.84375 78.3125 8.984375 
Q 85.546875 3.125 94.140625 -0.78125 
Q 91.015625 -3.125 87.890625 -8.59375 
Q 80.859375 -4.6875 74.015625 1.171875 
Q 67.1875 7.03125 60.34375 16.59375 
Q 53.515625 26.171875 50 34.375 
Q 46.875 25.78125 43.359375 20.109375 
Q 39.84375 14.453125 35.734375 9.765625 
Q 31.640625 5.078125 25.1875 0.390625 
Q 18.75 -4.296875 10.546875 -8.984375 
Q 7.421875 -4.296875 3.515625 -0.78125 
Q 11.71875 1.953125 19.71875 7.03125 
Q 27.734375 12.109375 32.8125 18.546875 
Q 37.890625 25 41.015625 32.03125 
Q 44.140625 39.0625 44.921875 45.703125 
L 23.4375 45.703125 
Q 14.0625 45.703125 8.59375 45.3125 
L 8.59375 53.90625 
Q 14.0625 53.515625 23.4375 53.125 
z
" id="SimHei-22823"/>
      <path d="M 33.203125 60.546875 
Q 27.34375 68.359375 20.703125 73.828125 
Q 23.828125 76.171875 26.171875 78.90625 
L 39.453125 66.015625 
Q 37.5 64.453125 34.375 60.546875 
L 47.265625 60.546875 
L 47.265625 71.09375 
Q 47.265625 76.5625 46.875 80.078125 
L 55.078125 80.078125 
Q 54.6875 75.78125 54.6875 71.09375 
L 54.6875 60.546875 
L 67.578125 60.546875 
Q 64.453125 63.28125 62.5 64.84375 
Q 69.53125 71.484375 75 80.859375 
Q 78.125 78.125 82.421875 75.390625 
Q 79.6875 73.046875 76.75 69.921875 
Q 73.828125 66.796875 68.75 60.546875 
L 78.515625 60.546875 
Q 84.765625 60.546875 92.1875 60.9375 
L 92.1875 53.90625 
Q 84.765625 54.296875 78.515625 54.296875 
L 54.6875 54.296875 
L 54.6875 47.65625 
Q 54.6875 41.40625 55.078125 33.984375 
L 49.609375 33.984375 
Q 54.296875 32.421875 57.421875 31.25 
Q 55.859375 29.296875 55.078125 24.609375 
L 78.515625 24.609375 
Q 86.328125 24.609375 94.140625 25 
L 94.140625 17.96875 
Q 86.71875 18.359375 78.90625 18.359375 
L 57.421875 18.359375 
Q 63.28125 9.375 73.625 4.296875 
Q 83.984375 -0.78125 94.53125 -2.734375 
Q 91.40625 -5.46875 89.453125 -10.546875 
Q 77.734375 -7.03125 67.96875 -0.578125 
Q 58.203125 5.859375 51.5625 14.84375 
Q 47.65625 5.46875 37.890625 -0.78125 
Q 28.125 -7.03125 12.109375 -10.9375 
Q 10.15625 -6.640625 7.421875 -3.515625 
Q 21.484375 -1.5625 31.4375 3.515625 
Q 41.40625 8.59375 45.3125 18.359375 
L 25.390625 18.359375 
Q 16.015625 18.359375 8.203125 17.96875 
L 8.203125 25 
Q 14.84375 24.609375 25 24.609375 
L 47.265625 24.609375 
Q 48.046875 28.515625 48.4375 33.984375 
L 46.875 33.984375 
Q 47.265625 41.796875 47.265625 47.65625 
L 47.265625 51.953125 
Q 42.578125 45.3125 34.953125 39.84375 
Q 27.34375 34.375 14.453125 28.515625 
Q 13.28125 31.640625 9.765625 35.546875 
Q 18.359375 37.5 26.953125 42.765625 
Q 35.546875 48.046875 40.625 54.296875 
L 24.21875 54.296875 
Q 16.40625 54.296875 9.375 53.515625 
L 9.375 60.9375 
Q 16.796875 60.546875 24.21875 60.546875 
z
M 64.0625 53.90625 
Q 75.78125 46.875 90.625 36.71875 
Q 87.109375 33.203125 84.765625 30.078125 
Q 73.4375 39.84375 59.765625 48.046875 
Q 62.109375 50.78125 64.0625 53.90625 
z
" id="SimHei-31867"/>
     </defs>
     <g transform="translate(570.4 594.210938)scale(0.1 -0.1)">
      <use xlink:href="#SimHei-20135"/>
      <use x="100" xlink:href="#SimHei-21697"/>
      <use x="200" xlink:href="#SimHei-22823"/>
      <use x="300" xlink:href="#SimHei-31867"/>
     </g>
    </g>
   </g>
   <g id="matplotlib.axis_2">
    <g id="ytick_1">
     <g id="line2d_7">
      <defs>
       <path d="M 0 0 
L -3.5 0 
" id="madc57e42d0" style="stroke:#000000;stroke-width:0.8;"/>
      </defs>
      <g>
       <use style="stroke:#000000;stroke-width:0.8;" x="144" xlink:href="#madc57e42d0" y="567"/>
      </g>
     </g>
     <g id="text_8">
      <!-- 0 -->
      <g transform="translate(132 570.4375)scale(0.1 -0.1)">
       <use xlink:href="#SimHei-48"/>
      </g>
     </g>
    </g>
    <g id="ytick_2">
     <g id="line2d_8">
      <g>
       <use style="stroke:#000000;stroke-width:0.8;" x="144" xlink:href="#madc57e42d0" y="501.924182"/>
      </g>
     </g>
     <g id="text_9">
      <!-- 50 -->
      <g transform="translate(127 505.361682)scale(0.1 -0.1)">
       <use xlink:href="#SimHei-53"/>
       <use x="50" xlink:href="#SimHei-48"/>
      </g>
     </g>
    </g>
    <g id="ytick_3">
     <g id="line2d_9">
      <g>
       <use style="stroke:#000000;stroke-width:0.8;" x="144" xlink:href="#madc57e42d0" y="436.848364"/>
      </g>
     </g>
     <g id="text_10">
      <!-- 100 -->
      <g transform="translate(122 440.285864)scale(0.1 -0.1)">
       <use xlink:href="#SimHei-49"/>
       <use x="50" xlink:href="#SimHei-48"/>
       <use x="100" xlink:href="#SimHei-48"/>
      </g>
     </g>
    </g>
    <g id="ytick_4">
     <g id="line2d_10">
      <g>
       <use style="stroke:#000000;stroke-width:0.8;" x="144" xlink:href="#madc57e42d0" y="371.772546"/>
      </g>
     </g>
     <g id="text_11">
      <!-- 150 -->
      <g transform="translate(122 375.210046)scale(0.1 -0.1)">
       <use xlink:href="#SimHei-49"/>
       <use x="50" xlink:href="#SimHei-53"/>
       <use x="100" xlink:href="#SimHei-48"/>
      </g>
     </g>
    </g>
    <g id="ytick_5">
     <g id="line2d_11">
      <g>
       <use style="stroke:#000000;stroke-width:0.8;" x="144" xlink:href="#madc57e42d0" y="306.696728"/>
      </g>
     </g>
     <g id="text_12">
      <!-- 200 -->
      <g transform="translate(122 310.134228)scale(0.1 -0.1)">
       <use xlink:href="#SimHei-50"/>
       <use x="50" xlink:href="#SimHei-48"/>
       <use x="100" xlink:href="#SimHei-48"/>
      </g>
     </g>
    </g>
    <g id="ytick_6">
     <g id="line2d_12">
      <g>
       <use style="stroke:#000000;stroke-width:0.8;" x="144" xlink:href="#madc57e42d0" y="241.62091"/>
      </g>
     </g>
     <g id="text_13">
      <!-- 250 -->
      <g transform="translate(122 245.05841)scale(0.1 -0.1)">
       <use xlink:href="#SimHei-50"/>
       <use x="50" xlink:href="#SimHei-53"/>
       <use x="100" xlink:href="#SimHei-48"/>
      </g>
     </g>
    </g>
    <g id="ytick_7">
     <g id="line2d_13">
      <g>
       <use style="stroke:#000000;stroke-width:0.8;" x="144" xlink:href="#madc57e42d0" y="176.545092"/>
      </g>
     </g>
     <g id="text_14">
      <!-- 300 -->
      <g transform="translate(122 179.982592)scale(0.1 -0.1)">
       <use xlink:href="#SimHei-51"/>
       <use x="50" xlink:href="#SimHei-48"/>
       <use x="100" xlink:href="#SimHei-48"/>
      </g>
     </g>
    </g>
    <g id="ytick_8">
     <g id="line2d_14">
      <g>
       <use style="stroke:#000000;stroke-width:0.8;" x="144" xlink:href="#madc57e42d0" y="111.469274"/>
      </g>
     </g>
     <g id="text_15">
      <!-- 350 -->
      <g transform="translate(122 114.906774)scale(0.1 -0.1)">
       <use xlink:href="#SimHei-51"/>
       <use x="50" xlink:href="#SimHei-53"/>
       <use x="100" xlink:href="#SimHei-48"/>
      </g>
     </g>
    </g>
    <g id="text_16">
     <!-- 销量 -->
     <defs>
      <path d="M 65.234375 67.578125 
Q 65.234375 73.4375 64.84375 80.078125 
L 72.65625 80.078125 
Q 72.265625 75.78125 72.265625 67.578125 
L 72.265625 50.390625 
L 91.015625 50.390625 
Q 90.625 44.53125 90.625 34.765625 
L 90.625 0.78125 
Q 90.625 -4.6875 86.90625 -5.859375 
Q 83.203125 -7.03125 76.953125 -8.203125 
Q 76.171875 -4.296875 73.4375 -0.390625 
Q 82.421875 0 82.8125 1.75 
Q 83.203125 3.515625 83.203125 12.890625 
L 55.859375 12.890625 
L 55.859375 -7.03125 
L 48.4375 -7.03125 
Q 48.828125 1.171875 48.828125 6.25 
L 48.828125 33.984375 
Q 48.828125 43.75 48.4375 50.390625 
L 65.234375 50.390625 
z
M 36.71875 42.1875 
Q 31.640625 42.578125 26.5625 42.578125 
L 26.5625 30.859375 
Q 33.203125 30.859375 40.625 31.25 
L 40.625 24.21875 
Q 33.203125 24.609375 26.5625 24.609375 
L 26.5625 6.640625 
Q 30.078125 8.984375 35.15625 14.453125 
Q 36.328125 10.9375 39.0625 7.421875 
Q 35.15625 4.6875 30.859375 1.359375 
Q 26.5625 -1.953125 21.875 -7.03125 
Q 19.921875 -3.515625 16.796875 -0.78125 
Q 19.140625 1.5625 19.53125 6.25 
L 19.53125 24.609375 
Q 14.84375 24.609375 8.203125 24.21875 
L 8.203125 31.25 
Q 14.84375 30.859375 19.53125 30.859375 
L 19.53125 42.578125 
Q 14.84375 42.578125 11.71875 42.1875 
L 11.71875 49.21875 
Q 16.796875 48.828125 23.4375 48.828125 
Q 30.46875 48.828125 36.71875 49.21875 
z
M 9.765625 48.046875 
Q 7.03125 51.171875 3.515625 52.734375 
Q 9.375 58.59375 13.671875 65.625 
Q 17.96875 72.65625 20.703125 80.078125 
Q 26.171875 76.953125 29.296875 75.78125 
Q 24.21875 68.75 22.65625 65.625 
Q 32.421875 65.625 39.0625 66.015625 
L 39.0625 58.59375 
Q 32.421875 58.984375 18.75 58.984375 
Q 12.890625 51.171875 9.765625 48.046875 
z
M 83.203125 34.375 
L 83.203125 44.53125 
L 55.859375 44.53125 
L 55.859375 34.375 
z
M 83.203125 18.75 
L 83.203125 28.515625 
L 55.859375 28.515625 
L 55.859375 18.75 
z
M 94.53125 71.09375 
Q 91.40625 67.1875 85.15625 55.078125 
Q 81.640625 57.03125 77.734375 58.203125 
Q 82.03125 63.28125 86.328125 74.609375 
Q 89.453125 72.65625 94.53125 71.09375 
z
M 50 74.609375 
Q 56.25 64.84375 59.375 59.375 
Q 55.859375 57.8125 52.34375 55.46875 
Q 49.609375 61.71875 43.359375 70.703125 
Q 47.265625 72.265625 50 74.609375 
z
" id="SimHei-38144"/>
      <path d="M 82.03125 39.0625 
Q 81.640625 34.375 81.640625 26.5625 
Q 81.640625 19.140625 82.03125 14.84375 
L 53.515625 14.84375 
L 53.515625 9.765625 
L 71.484375 9.765625 
Q 78.125 9.765625 83.984375 10.15625 
L 83.984375 4.296875 
Q 78.515625 4.6875 71.484375 4.6875 
L 53.515625 4.6875 
L 53.515625 -1.171875 
L 80.078125 -1.171875 
Q 86.328125 -1.171875 92.578125 -0.78125 
L 92.578125 -6.640625 
Q 86.328125 -6.25 80.078125 -6.25 
L 19.921875 -6.25 
Q 14.0625 -6.25 7.421875 -6.640625 
L 7.421875 -0.78125 
Q 14.453125 -0.78125 19.921875 -1.171875 
L 46.484375 -1.171875 
L 46.484375 4.6875 
L 26.953125 4.6875 
Q 21.09375 4.6875 15.234375 3.90625 
L 15.234375 10.15625 
Q 21.484375 9.765625 26.953125 9.765625 
L 46.484375 9.765625 
L 46.484375 14.84375 
L 17.96875 14.84375 
Q 18.359375 21.484375 18.359375 27.734375 
Q 18.359375 33.984375 17.96875 39.0625 
L 82.03125 39.0625 
z
M 81.25 77.34375 
Q 80.859375 71.484375 80.859375 66.40625 
Q 80.859375 61.328125 81.25 53.125 
L 18.75 53.125 
Q 19.140625 61.328125 19.140625 66.40625 
Q 19.140625 71.484375 18.75 77.34375 
L 81.25 77.34375 
z
M 76.5625 48.4375 
Q 85.9375 48.828125 93.75 49.21875 
L 93.75 42.96875 
Q 85.9375 43.359375 76.953125 43.359375 
L 25.78125 43.359375 
Q 15.234375 43.359375 5.078125 42.96875 
L 5.078125 49.21875 
Q 15.234375 48.828125 25.78125 48.4375 
z
M 73.828125 57.8125 
L 73.828125 62.890625 
L 26.171875 62.890625 
L 26.171875 57.8125 
z
M 73.828125 67.96875 
L 73.828125 72.65625 
L 26.171875 72.65625 
L 26.171875 67.96875 
z
M 74.21875 29.296875 
L 74.21875 33.984375 
L 53.515625 33.984375 
L 53.515625 29.296875 
z
M 46.484375 29.296875 
L 46.484375 33.984375 
L 25.78125 33.984375 
L 25.78125 29.296875 
z
M 46.484375 19.921875 
L 46.484375 24.21875 
L 25.78125 24.21875 
L 25.78125 19.921875 
z
M 74.21875 19.921875 
L 74.21875 24.21875 
L 53.515625 24.21875 
L 53.515625 19.921875 
z
" id="SimHei-37327"/>
     </defs>
     <g transform="translate(116.75 332.38)rotate(-90)scale(0.1 -0.1)">
      <use xlink:href="#SimHei-38144"/>
      <use x="100" xlink:href="#SimHei-37327"/>
     </g>
    </g>
   </g>
   <g id="patch_15">
    <path d="M 144 567 
L 144 77.76 
" style="fill:none;stroke:#000000;stroke-linecap:square;stroke-linejoin:miter;stroke-width:0.8;"/>
   </g>
   <g id="patch_16">
    <path d="M 1036.8 567 
L 1036.8 77.76 
" style="fill:none;stroke:#000000;stroke-linecap:square;stroke-linejoin:miter;stroke-width:0.8;"/>
   </g>
   <g id="patch_17">
    <path d="M 144 567 
L 1036.8 567 
" style="fill:none;stroke:#000000;stroke-linecap:square;stroke-linejoin:miter;stroke-width:0.8;"/>
   </g>
   <g id="patch_18">
    <path d="M 144 77.76 
L 1036.8 77.76 
" style="fill:none;stroke:#000000;stroke-linecap:square;stroke-linejoin:miter;stroke-width:0.8;"/>
   </g>
   <g id="text_17">
    <!-- 2014-2015年春节前30-14日各分类销量情况 -->
    <defs>
     <path d="M 46.484375 33.203125 
L 1.953125 33.203125 
L 1.953125 39.453125 
L 46.484375 39.453125 
z
" id="SimHei-45"/>
     <path d="M 5.46875 45.703125 
Q 14.0625 53.90625 21.484375 65.625 
Q 28.90625 77.34375 29.6875 82.421875 
Q 35.546875 80.078125 40.625 78.90625 
Q 37.109375 75.390625 32.8125 67.578125 
L 72.265625 67.578125 
Q 80.859375 67.578125 89.84375 67.96875 
L 89.84375 61.328125 
Q 81.640625 61.71875 72.265625 61.71875 
L 59.375 61.71875 
L 59.375 45.703125 
Q 74.21875 45.703125 85.546875 46.09375 
L 85.546875 39.453125 
Q 73.828125 39.84375 59.375 39.84375 
L 59.375 21.484375 
L 79.296875 21.484375 
Q 87.890625 21.484375 95.3125 21.875 
L 95.3125 15.234375 
Q 88.28125 15.625 79.296875 15.625 
L 59.375 15.625 
L 59.375 6.640625 
Q 59.375 -2.34375 59.765625 -9.765625 
L 51.171875 -9.765625 
Q 51.5625 -2.34375 51.5625 5.859375 
L 51.5625 15.625 
L 25 15.625 
Q 14.0625 15.625 4.296875 15.234375 
L 4.296875 21.875 
Q 13.671875 21.484375 22.65625 21.484375 
Q 22.65625 36.71875 22.265625 45.703125 
L 51.5625 45.703125 
L 51.5625 61.71875 
L 29.296875 61.71875 
Q 21.09375 49.21875 14.453125 41.40625 
Q 10.15625 44.921875 5.46875 45.703125 
z
M 51.5625 21.484375 
L 51.5625 39.84375 
L 30.078125 39.84375 
L 30.078125 21.484375 
z
" id="SimHei-24180"/>
     <path d="M 56.640625 79.296875 
Q 55.46875 78.125 53.90625 71.484375 
L 73.046875 71.484375 
Q 80.46875 71.484375 88.28125 71.875 
L 88.28125 65.234375 
Q 80.46875 65.625 75.78125 65.625 
L 53.125 65.625 
Q 52.34375 62.890625 51.171875 57.8125 
L 76.953125 57.8125 
Q 79.6875 57.8125 84.765625 58.203125 
L 84.765625 51.953125 
Q 78.125 52.34375 75.78125 52.34375 
L 49.609375 52.34375 
Q 47.65625 47.265625 45.3125 43.75 
L 78.515625 43.75 
Q 84.765625 43.75 92.1875 44.140625 
L 92.1875 37.890625 
Q 84.765625 38.28125 69.140625 38.28125 
Q 72.65625 33.203125 79.875 29.09375 
Q 87.109375 25 95.703125 22.65625 
Q 91.796875 19.921875 89.84375 15.234375 
Q 81.640625 18.75 76.171875 22.265625 
L 76.171875 3.125 
Q 76.171875 -2.734375 76.5625 -9.375 
L 68.75 -9.375 
L 68.75 -4.296875 
L 33.59375 -4.296875 
L 33.59375 -8.984375 
L 25.78125 -8.984375 
Q 26.171875 -2.34375 26.171875 2.734375 
L 26.171875 24.21875 
Q 19.53125 19.140625 10.546875 14.84375 
Q 8.59375 17.578125 4.6875 20.3125 
Q 12.5 23.046875 19.921875 27.734375 
Q 27.34375 32.421875 32.8125 38.28125 
L 19.140625 38.28125 
Q 15.234375 38.28125 8.203125 37.5 
L 8.203125 44.140625 
Q 15.234375 43.75 19.921875 43.75 
L 37.5 43.75 
Q 40.234375 47.265625 42.1875 52.34375 
L 28.125 52.34375 
Q 25 52.34375 17.578125 51.953125 
L 17.578125 58.203125 
Q 25 57.8125 28.90625 57.8125 
L 44.140625 57.8125 
Q 45.3125 61.328125 46.09375 65.625 
L 25 65.625 
Q 19.921875 65.625 12.890625 65.234375 
L 12.890625 71.875 
Q 21.09375 71.484375 26.953125 71.484375 
L 46.875 71.484375 
Q 47.265625 75.390625 47.65625 81.25 
Q 52.34375 79.6875 56.640625 79.296875 
z
M 68.75 1.5625 
L 68.75 9.765625 
L 33.59375 9.765625 
L 33.59375 1.5625 
z
M 68.75 15.625 
L 68.75 23.4375 
L 33.59375 23.4375 
L 33.59375 15.625 
z
M 67.578125 28.90625 
Q 64.453125 32.03125 60.546875 38.28125 
L 41.796875 38.28125 
Q 36.328125 32.03125 32.03125 28.90625 
z
" id="SimHei-26149"/>
     <path d="M 65.625 3.125 
Q 64.84375 7.8125 61.71875 12.5 
Q 69.53125 12.5 73.625 13.28125 
Q 77.734375 14.0625 78.125 17.96875 
L 78.90625 39.0625 
L 45.703125 39.0625 
L 45.703125 5.078125 
Q 45.703125 -1.953125 46.09375 -9.375 
L 37.109375 -9.375 
Q 37.890625 -2.34375 37.890625 5.078125 
L 37.890625 39.0625 
L 29.296875 39.0625 
Q 16.40625 39.0625 8.59375 38.671875 
L 8.59375 46.09375 
Q 16.796875 45.703125 25.390625 45.703125 
L 87.890625 45.703125 
Q 86.71875 29.296875 86.328125 19.140625 
Q 85.9375 8.984375 80.46875 6.4375 
Q 75 3.90625 65.625 3.125 
z
M 38.671875 61.71875 
Q 38.671875 54.6875 39.0625 49.609375 
L 30.46875 49.609375 
Q 30.859375 55.46875 30.859375 61.71875 
L 17.578125 61.71875 
Q 12.109375 61.71875 5.46875 60.9375 
L 5.46875 68.75 
Q 12.109375 68.359375 17.578125 68.359375 
L 30.859375 68.359375 
Q 30.859375 75.78125 30.46875 80.859375 
L 39.0625 80.859375 
Q 38.671875 75.78125 38.671875 68.359375 
L 59.375 68.359375 
Q 59.375 76.171875 58.984375 80.859375 
L 67.96875 80.859375 
Q 67.578125 76.171875 67.578125 68.359375 
L 80.078125 68.359375 
Q 87.5 68.359375 93.75 68.75 
L 93.75 61.328125 
Q 87.5 61.71875 80.078125 61.71875 
L 67.578125 61.71875 
Q 67.578125 55.46875 67.96875 49.609375 
L 58.984375 49.609375 
Q 59.375 55.859375 59.375 61.71875 
z
" id="SimHei-33410"/>
     <path d="M 32.421875 -1.5625 
Q 37.5 -1.5625 39.640625 -1.359375 
Q 41.796875 -1.171875 41.796875 1.5625 
L 41.796875 13.671875 
L 20.703125 13.671875 
L 20.703125 -10.15625 
L 12.5 -10.15625 
Q 13.28125 -3.125 13.28125 5.46875 
L 13.28125 36.71875 
Q 13.28125 44.53125 12.890625 51.5625 
L 49.609375 51.5625 
Q 49.21875 44.921875 49.21875 37.109375 
L 49.21875 -2.34375 
Q 49.21875 -6.25 46.09375 -7.421875 
Q 42.96875 -8.59375 35.546875 -9.765625 
Q 34.375 -5.46875 32.421875 -1.5625 
z
M 77.34375 79.296875 
Q 75.390625 77.734375 73.234375 74.21875 
Q 71.09375 70.703125 68.359375 66.015625 
L 84.375 66.015625 
Q 89.84375 66.015625 96.484375 66.40625 
L 96.484375 58.984375 
Q 90.234375 59.765625 82.8125 59.765625 
L 21.09375 59.765625 
Q 10.9375 59.765625 3.90625 58.984375 
L 3.90625 66.40625 
Q 12.109375 66.015625 21.09375 66.015625 
L 60.546875 66.015625 
Q 67.1875 78.515625 67.96875 82.8125 
Q 72.265625 80.46875 77.34375 79.296875 
z
M 68.359375 -1.171875 
Q 75.390625 -1.5625 77.140625 -1.171875 
Q 78.90625 -0.78125 78.90625 2.34375 
L 78.90625 42.96875 
Q 78.90625 47.65625 78.515625 53.125 
L 86.71875 53.125 
Q 86.328125 48.046875 86.328125 42.96875 
L 86.328125 -0.390625 
Q 86.328125 -5.46875 83.78125 -7.03125 
Q 81.25 -8.59375 71.875 -9.375 
Q 71.09375 -4.296875 68.359375 -1.171875 
z
M 58.984375 8.984375 
Q 59.375 14.84375 59.375 19.140625 
L 59.375 37.109375 
Q 59.375 43.359375 58.984375 48.046875 
L 67.1875 48.046875 
Q 66.796875 43.359375 66.796875 37.109375 
L 66.796875 19.53125 
Q 66.796875 13.671875 67.1875 8.984375 
z
M 41.796875 35.15625 
L 41.796875 45.703125 
L 20.703125 45.703125 
L 20.703125 35.15625 
z
M 41.796875 19.53125 
L 41.796875 29.296875 
L 20.703125 29.296875 
L 20.703125 19.53125 
z
M 34.765625 67.1875 
Q 33.203125 71.484375 27.34375 78.90625 
Q 31.640625 80.859375 34.375 82.8125 
Q 39.84375 75.78125 42.578125 71.09375 
Q 39.0625 69.53125 34.765625 67.1875 
z
" id="SimHei-21069"/>
     <path d="M 83.984375 78.125 
Q 83.59375 58.984375 83.59375 35.546875 
Q 83.59375 12.109375 83.984375 -7.03125 
L 75 -7.03125 
L 75 2.734375 
L 28.125 2.734375 
L 28.125 -8.984375 
L 19.53125 -8.984375 
Q 19.921875 8.984375 19.921875 33.203125 
Q 19.921875 57.421875 19.53125 78.125 
L 83.984375 78.125 
z
M 75 9.375 
L 75 37.109375 
L 28.125 37.109375 
L 28.125 9.375 
z
M 75 43.75 
L 75 71.09375 
L 28.125 71.09375 
L 28.125 43.75 
z
" id="SimHei-26085"/>
     <path d="M 79.6875 69.140625 
Q 75.78125 62.5 70.703125 56.25 
Q 65.625 50 57.421875 42.96875 
Q 63.28125 39.0625 74.21875 36.328125 
Q 85.15625 33.59375 94.53125 33.203125 
Q 91.015625 28.515625 90.234375 25 
Q 78.90625 27.34375 68.9375 30.65625 
Q 58.984375 33.984375 51.5625 38.671875 
Q 42.96875 33.59375 31.25 29.296875 
Q 19.53125 25 8.59375 22.265625 
Q 7.421875 25.390625 4.296875 28.90625 
Q 14.0625 30.46875 25.96875 34.375 
Q 37.890625 38.28125 46.09375 42.96875 
Q 39.453125 49.21875 32.8125 60.9375 
Q 29.6875 55.859375 26.171875 51.5625 
Q 22.65625 47.265625 19.53125 43.75 
Q 16.40625 46.875 13.28125 48.4375 
Q 18.75 53.125 24.796875 61.71875 
Q 30.859375 70.3125 33.984375 81.640625 
Q 38.28125 79.296875 42.578125 78.125 
Q 40.625 75.78125 37.109375 69.140625 
z
M 77.734375 26.171875 
Q 77.34375 17.578125 77.34375 6.25 
Q 77.34375 -5.078125 77.734375 -8.984375 
L 69.921875 -8.984375 
L 69.921875 -3.515625 
L 32.03125 -3.515625 
L 32.03125 -9.765625 
L 24.21875 -9.765625 
Q 24.609375 -4.296875 24.609375 6.25 
Q 24.609375 16.796875 24.21875 26.171875 
z
M 69.921875 3.125 
L 69.921875 19.53125 
L 32.03125 19.53125 
L 32.03125 3.125 
z
M 51.953125 46.875 
Q 60.546875 53.90625 67.1875 62.890625 
L 39.0625 62.890625 
Q 46.484375 51.171875 51.953125 46.875 
z
" id="SimHei-21508"/>
     <path d="M 15.625 -10.15625 
Q 12.890625 -5.859375 8.984375 -3.515625 
Q 15.234375 -1.171875 20.3125 2.140625 
Q 25.390625 5.46875 29.296875 10.34375 
Q 33.203125 15.234375 35.15625 21.09375 
Q 37.109375 26.953125 37.890625 35.546875 
Q 28.90625 35.546875 23.4375 35.15625 
L 23.4375 43.359375 
Q 29.6875 42.96875 39.453125 42.96875 
L 78.515625 42.96875 
Q 77.734375 37.109375 77.34375 32.8125 
L 74.21875 3.90625 
Q 73.4375 -3.125 67.96875 -5.46875 
Q 62.5 -7.8125 55.859375 -8.203125 
Q 55.46875 -4.296875 51.953125 0.78125 
Q 60.15625 0.390625 63.078125 1.359375 
Q 66.015625 2.34375 66.796875 8.203125 
L 69.53125 35.546875 
L 46.09375 35.546875 
Q 44.921875 25.390625 42.765625 18.546875 
Q 40.625 11.71875 36.71875 6.640625 
Q 32.8125 1.5625 27.34375 -2.734375 
Q 21.875 -7.03125 15.625 -10.15625 
z
M 61.71875 80.859375 
Q 64.453125 72.65625 72.84375 62.109375 
Q 81.25 51.5625 96.484375 43.75 
Q 93.359375 41.015625 90.234375 35.546875 
Q 83.203125 40.625 77.921875 45.109375 
Q 72.65625 49.609375 69.140625 53.515625 
Q 65.625 57.421875 61.328125 64.640625 
Q 57.03125 71.875 54.296875 78.125 
Q 58.59375 79.296875 61.71875 80.859375 
z
M 42.1875 75.390625 
Q 38.671875 69.140625 36.328125 64.453125 
Q 33.984375 59.765625 31.640625 56.046875 
Q 29.296875 52.34375 24.609375 46.09375 
Q 19.921875 39.84375 13.28125 33.203125 
Q 9.765625 36.71875 6.25 38.671875 
Q 14.0625 45.703125 18.546875 51.5625 
Q 23.046875 57.421875 27.140625 64.25 
Q 31.25 71.09375 34.375 79.296875 
Q 37.5 76.953125 42.1875 75.390625 
z
" id="SimHei-20998"/>
     <path d="M 43.359375 23.046875 
Q 43.359375 32.03125 42.96875 39.453125 
L 87.5 39.453125 
Q 87.109375 32.8125 87.109375 26.953125 
L 87.109375 -2.34375 
Q 87.109375 -6.640625 83.984375 -7.8125 
Q 80.859375 -8.984375 76.171875 -9.765625 
Q 75.78125 -6.25 73.4375 -2.34375 
Q 78.90625 -2.34375 79.6875 -1.171875 
Q 80.46875 0 80.46875 7.421875 
L 50.390625 7.421875 
L 50.390625 -9.765625 
L 42.96875 -9.765625 
Q 43.359375 -0.78125 43.359375 5.859375 
z
M 37.109375 50.78125 
Q 46.484375 50.390625 54.296875 50.390625 
L 62.109375 50.390625 
L 62.109375 56.640625 
L 54.6875 56.640625 
Q 48.046875 56.640625 41.015625 56.25 
L 41.015625 62.890625 
Q 48.046875 62.5 54.6875 62.5 
L 62.109375 62.5 
L 62.109375 67.96875 
L 53.90625 67.96875 
Q 47.65625 67.96875 38.671875 67.578125 
L 38.671875 74.21875 
Q 48.046875 73.828125 53.90625 73.828125 
L 62.109375 73.828125 
Q 62.109375 77.734375 61.71875 81.640625 
L 69.921875 81.640625 
Q 69.53125 77.734375 69.53125 73.828125 
L 80.078125 73.828125 
Q 86.71875 73.828125 92.578125 74.21875 
L 92.578125 67.578125 
Q 86.71875 67.96875 80.078125 67.96875 
L 69.53125 67.96875 
L 69.53125 62.5 
L 76.953125 62.5 
Q 83.203125 62.5 89.84375 62.890625 
L 89.84375 56.25 
Q 82.8125 56.640625 76.953125 56.640625 
L 69.53125 56.640625 
L 69.53125 50.390625 
L 80.859375 50.390625 
Q 90.234375 50.390625 96.09375 50.78125 
L 96.09375 44.140625 
Q 90.234375 44.53125 80.46875 44.53125 
L 54.6875 44.53125 
Q 44.53125 44.53125 37.109375 44.140625 
z
M 26.171875 81.640625 
Q 25.78125 75 25.78125 68.75 
L 25.78125 6.640625 
Q 25.78125 -1.5625 26.171875 -9.375 
L 17.96875 -9.375 
Q 18.75 -1.5625 18.75 6.640625 
L 18.75 67.578125 
Q 18.75 75.390625 17.96875 81.640625 
L 26.171875 81.640625 
z
M 80.078125 13.28125 
L 80.078125 20.703125 
L 50.390625 20.703125 
L 50.390625 13.28125 
z
M 80.078125 26.5625 
L 80.078125 33.59375 
L 50.390625 33.59375 
L 50.390625 26.5625 
z
M 16.40625 60.9375 
Q 15.625 57.421875 11.328125 35.546875 
Q 7.8125 36.71875 3.90625 37.109375 
Q 6.640625 42.96875 8.984375 62.109375 
Q 12.5 61.328125 16.40625 60.9375 
z
M 30.859375 48.828125 
Q 30.078125 53.515625 27.734375 62.109375 
Q 30.46875 62.5 34.375 63.671875 
Q 36.71875 55.46875 38.28125 51.171875 
Q 33.984375 50 30.859375 48.828125 
z
" id="SimHei-24773"/>
     <path d="M 85.15625 76.171875 
Q 84.765625 70.3125 84.765625 57.421875 
Q 84.765625 44.53125 85.15625 37.109375 
L 71.484375 37.109375 
L 71.484375 6.25 
Q 71.484375 0.78125 74.40625 0.390625 
Q 77.34375 0 81.25 0.1875 
Q 85.15625 0.390625 85.9375 2.921875 
Q 86.71875 5.46875 87.109375 12.890625 
Q 91.40625 10.546875 96.09375 9.375 
Q 93.359375 -2.734375 90.234375 -4.484375 
Q 87.109375 -6.25 80.859375 -6.4375 
Q 74.609375 -6.640625 69.328125 -5.65625 
Q 64.0625 -4.6875 64.0625 3.125 
L 64.0625 37.109375 
L 54.296875 37.109375 
Q 54.6875 2.34375 25 -9.765625 
Q 23.828125 -5.859375 19.921875 -2.34375 
Q 46.875 5.859375 46.875 37.109375 
L 36.328125 37.109375 
Q 36.71875 44.53125 36.71875 57.421875 
Q 36.71875 70.703125 36.328125 76.171875 
L 85.15625 76.171875 
z
M 76.5625 43.359375 
L 76.5625 69.921875 
L 44.53125 69.921875 
L 44.53125 43.359375 
z
M 31.640625 34.375 
Q 27.34375 26.953125 21.09375 15.625 
Q 14.84375 4.296875 12.109375 0 
Q 8.203125 2.734375 4.6875 4.6875 
Q 12.5 15.234375 25 39.0625 
Q 28.90625 35.9375 31.640625 34.375 
z
M 14.84375 77.34375 
Q 17.1875 74.609375 21.09375 69.71875 
Q 25 64.84375 28.90625 59.375 
Q 24.609375 56.640625 21.484375 53.90625 
Q 16.796875 62.890625 8.203125 71.875 
Q 12.109375 75.390625 14.84375 77.34375 
z
" id="SimHei-20917"/>
    </defs>
    <g transform="translate(476.4 71.76)scale(0.12 -0.12)">
     <use xlink:href="#SimHei-50"/>
     <use x="50" xlink:href="#SimHei-48"/>
     <use x="100" xlink:href="#SimHei-49"/>
     <use x="150" xlink:href="#SimHei-52"/>
     <use x="200" xlink:href="#SimHei-45"/>
     <use x="250" xlink:href="#SimHei-50"/>
     <use x="300" xlink:href="#SimHei-48"/>
     <use x="350" xlink:href="#SimHei-49"/>
     <use x="400" xlink:href="#SimHei-53"/>
     <use x="450" xlink:href="#SimHei-24180"/>
     <use x="550" xlink:href="#SimHei-26149"/>
     <use x="650" xlink:href="#SimHei-33410"/>
     <use x="750" xlink:href="#SimHei-21069"/>
     <use x="850" xlink:href="#SimHei-51"/>
     <use x="900" xlink:href="#SimHei-48"/>
     <use x="950" xlink:href="#SimHei-45"/>
     <use x="1000" xlink:href="#SimHei-49"/>
     <use x="1050" xlink:href="#SimHei-52"/>
     <use x="1100" xlink:href="#SimHei-26085"/>
     <use x="1200" xlink:href="#SimHei-21508"/>
     <use x="1300" xlink:href="#SimHei-20998"/>
     <use x="1400" xlink:href="#SimHei-31867"/>
     <use x="1500" xlink:href="#SimHei-38144"/>
     <use x="1600" xlink:href="#SimHei-37327"/>
     <use x="1700" xlink:href="#SimHei-24773"/>
     <use x="1800" xlink:href="#SimHei-20917"/>
    </g>
   </g>
   <g id="legend_1">
    <g id="patch_19">
     <path d="M 907.8 114.1975 
L 1029.8 114.1975 
Q 1031.8 114.1975 1031.8 112.1975 
L 1031.8 84.76 
Q 1031.8 82.76 1029.8 82.76 
L 907.8 82.76 
Q 905.8 82.76 905.8 84.76 
L 905.8 112.1975 
Q 905.8 114.1975 907.8 114.1975 
z
" style="fill:#ffffff;opacity:0.8;stroke:#cccccc;stroke-linejoin:miter;"/>
    </g>
    <g id="patch_20">
     <path d="M 909.8 94.72875 
L 929.8 94.72875 
L 929.8 87.72875 
L 909.8 87.72875 
z
" style="fill:#c6dbef;"/>
    </g>
    <g id="text_18">
     <!-- 2014年销量（左轴） -->
     <defs>
      <path d="M 84.765625 79.6875 
L 89.0625 74.609375 
Q 66.796875 58.203125 67.578125 36.71875 
Q 67.96875 16.015625 88.671875 0.78125 
L 84.375 -4.296875 
Q 60.546875 12.890625 61.328125 39.0625 
Q 61.328125 60.546875 84.765625 79.6875 
z
" id="SimHei-65288"/>
      <path d="M 49.609375 80.078125 
Q 48.046875 75 46.484375 64.84375 
L 76.953125 64.84375 
Q 84.375 64.84375 91.40625 65.625 
L 91.40625 57.8125 
Q 84.375 58.203125 78.515625 58.203125 
L 44.921875 58.203125 
Q 41.015625 44.921875 37.5 36.71875 
L 72.265625 36.71875 
Q 79.296875 36.71875 85.9375 37.109375 
L 85.9375 29.296875 
Q 79.6875 29.6875 72.65625 29.6875 
L 61.328125 29.6875 
L 61.328125 0.390625 
L 77.34375 0.390625 
Q 86.71875 0.390625 94.140625 0.78125 
L 94.140625 -7.03125 
Q 85.546875 -6.640625 78.125 -6.640625 
L 34.375 -6.640625 
Q 26.171875 -6.640625 20.703125 -7.03125 
L 20.703125 0.78125 
Q 26.171875 0.390625 34.765625 0.390625 
L 53.125 0.390625 
L 53.125 29.6875 
L 33.984375 29.6875 
Q 29.6875 22.265625 24.21875 15.421875 
Q 18.75 8.59375 10.546875 0.78125 
Q 8.59375 3.515625 3.125 5.859375 
Q 10.9375 11.71875 16.59375 18.359375 
Q 22.265625 25 27.734375 34.953125 
Q 33.203125 44.921875 36.71875 58.203125 
L 26.5625 58.203125 
Q 17.1875 58.203125 10.546875 57.8125 
L 10.546875 65.625 
Q 17.578125 64.84375 26.5625 64.84375 
L 38.28125 64.84375 
Q 39.84375 74.609375 39.84375 80.859375 
Q 45.3125 80.078125 49.609375 80.078125 
z
" id="SimHei-24038"/>
      <path d="M 65.625 60.9375 
Q 65.625 74.609375 65.234375 80.859375 
L 73.4375 80.859375 
Q 73.046875 75 73.046875 60.9375 
L 92.96875 60.9375 
Q 92.578125 47.265625 92.578125 26.171875 
Q 92.578125 5.078125 92.96875 -8.203125 
L 85.15625 -8.203125 
L 85.15625 1.5625 
L 53.515625 1.5625 
L 53.515625 -8.984375 
L 46.09375 -8.984375 
Q 46.484375 5.078125 46.484375 26.171875 
Q 46.484375 47.265625 46.09375 60.9375 
L 65.625 60.9375 
z
M 42.578125 14.84375 
Q 35.15625 14.0625 32.421875 13.671875 
Q 32.421875 3.125 32.8125 -9.375 
L 24.609375 -9.375 
Q 25 3.125 25 12.5 
Q 10.9375 10.15625 7.03125 8.984375 
Q 6.25 12.5 4.296875 16.796875 
Q 10.9375 17.1875 25 19.53125 
L 25 32.421875 
L 17.1875 32.421875 
Q 13.28125 32.421875 8.203125 31.25 
L 4.6875 38.671875 
Q 8.203125 40.625 10.9375 47.265625 
Q 13.671875 53.90625 16.015625 61.328125 
Q 10.9375 61.328125 5.078125 60.9375 
L 5.078125 67.96875 
Q 10.9375 67.578125 17.578125 67.578125 
Q 20.3125 75.390625 21.484375 82.03125 
Q 25.390625 80.46875 30.078125 79.6875 
Q 28.515625 76.953125 25 67.578125 
Q 33.984375 67.578125 42.96875 67.96875 
L 42.96875 60.9375 
Q 34.375 61.328125 23.046875 61.328125 
Q 17.96875 46.875 14.453125 38.671875 
L 25 38.671875 
Q 25 47.65625 24.609375 53.125 
L 32.8125 53.125 
Q 32.421875 48.4375 32.421875 38.671875 
Q 37.890625 38.671875 41.015625 39.0625 
L 41.015625 32.03125 
Q 38.28125 32.421875 32.421875 32.421875 
L 32.421875 20.3125 
L 43.359375 21.875 
Q 42.578125 18.359375 42.578125 14.84375 
z
M 65.625 8.203125 
L 65.625 28.90625 
L 53.515625 28.90625 
L 53.515625 8.203125 
z
M 85.15625 8.203125 
L 85.15625 28.90625 
L 73.046875 28.90625 
L 73.046875 8.203125 
z
M 65.625 35.15625 
L 65.625 54.296875 
L 53.515625 54.296875 
L 53.515625 35.15625 
z
M 85.15625 35.15625 
L 85.15625 54.296875 
L 73.046875 54.296875 
L 73.046875 35.15625 
z
" id="SimHei-36724"/>
      <path d="M 15.625 79.6875 
Q 39.0625 60.546875 39.0625 39.0625 
Q 39.84375 12.890625 16.015625 -4.296875 
L 11.71875 0.78125 
Q 32.421875 16.015625 32.8125 36.71875 
Q 33.59375 58.203125 11.328125 74.609375 
L 15.625 79.6875 
z
" id="SimHei-65289"/>
     </defs>
     <g transform="translate(937.8 94.72875)scale(0.1 -0.1)">
      <use xlink:href="#SimHei-50"/>
      <use x="50" xlink:href="#SimHei-48"/>
      <use x="100" xlink:href="#SimHei-49"/>
      <use x="150" xlink:href="#SimHei-52"/>
      <use x="200" xlink:href="#SimHei-24180"/>
      <use x="300" xlink:href="#SimHei-38144"/>
      <use x="400" xlink:href="#SimHei-37327"/>
      <use x="500" xlink:href="#SimHei-65288"/>
      <use x="600" xlink:href="#SimHei-24038"/>
      <use x="700" xlink:href="#SimHei-36724"/>
      <use x="800" xlink:href="#SimHei-65289"/>
     </g>
    </g>
    <g id="patch_21">
     <path d="M 909.8 108.9475 
L 929.8 108.9475 
L 929.8 101.9475 
L 909.8 101.9475 
z
" style="fill:#6aaed6;"/>
    </g>
    <g id="text_19">
     <!-- 2015年销量（左轴） -->
     <g transform="translate(937.8 108.9475)scale(0.1 -0.1)">
      <use xlink:href="#SimHei-50"/>
      <use x="50" xlink:href="#SimHei-48"/>
      <use x="100" xlink:href="#SimHei-49"/>
      <use x="150" xlink:href="#SimHei-53"/>
      <use x="200" xlink:href="#SimHei-24180"/>
      <use x="300" xlink:href="#SimHei-38144"/>
      <use x="400" xlink:href="#SimHei-37327"/>
      <use x="500" xlink:href="#SimHei-65288"/>
      <use x="600" xlink:href="#SimHei-24038"/>
      <use x="700" xlink:href="#SimHei-36724"/>
      <use x="800" xlink:href="#SimHei-65289"/>
     </g>
    </g>
   </g>
  </g>
  <g id="axes_2">
   <g id="matplotlib.axis_3">
    <g id="ytick_9">
     <g id="line2d_15">
      <defs>
       <path d="M 0 0 
L 3.5 0 
" id="m22db1314cf" style="stroke:#000000;stroke-width:0.8;"/>
      </defs>
      <g>
       <use style="stroke:#000000;stroke-width:0.8;" x="1036.8" xlink:href="#m22db1314cf" y="525.925737"/>
      </g>
     </g>
     <g id="text_20">
      <!-- 20 -->
      <g transform="translate(1043.8 529.363237)scale(0.1 -0.1)">
       <use xlink:href="#SimHei-50"/>
       <use x="50" xlink:href="#SimHei-48"/>
      </g>
     </g>
    </g>
    <g id="ytick_10">
     <g id="line2d_16">
      <g>
       <use style="stroke:#000000;stroke-width:0.8;" x="1036.8" xlink:href="#m22db1314cf" y="463.674787"/>
      </g>
     </g>
     <g id="text_21">
      <!-- 30 -->
      <g transform="translate(1043.8 467.112287)scale(0.1 -0.1)">
       <use xlink:href="#SimHei-51"/>
       <use x="50" xlink:href="#SimHei-48"/>
      </g>
     </g>
    </g>
    <g id="ytick_11">
     <g id="line2d_17">
      <g>
       <use style="stroke:#000000;stroke-width:0.8;" x="1036.8" xlink:href="#m22db1314cf" y="401.423836"/>
      </g>
     </g>
     <g id="text_22">
      <!-- 40 -->
      <g transform="translate(1043.8 404.861336)scale(0.1 -0.1)">
       <use xlink:href="#SimHei-52"/>
       <use x="50" xlink:href="#SimHei-48"/>
      </g>
     </g>
    </g>
    <g id="ytick_12">
     <g id="line2d_18">
      <g>
       <use style="stroke:#000000;stroke-width:0.8;" x="1036.8" xlink:href="#m22db1314cf" y="339.172886"/>
      </g>
     </g>
     <g id="text_23">
      <!-- 50 -->
      <g transform="translate(1043.8 342.610386)scale(0.1 -0.1)">
       <use xlink:href="#SimHei-53"/>
       <use x="50" xlink:href="#SimHei-48"/>
      </g>
     </g>
    </g>
    <g id="ytick_13">
     <g id="line2d_19">
      <g>
       <use style="stroke:#000000;stroke-width:0.8;" x="1036.8" xlink:href="#m22db1314cf" y="276.921936"/>
      </g>
     </g>
     <g id="text_24">
      <!-- 60 -->
      <g transform="translate(1043.8 280.359436)scale(0.1 -0.1)">
       <use xlink:href="#SimHei-54"/>
       <use x="50" xlink:href="#SimHei-48"/>
      </g>
     </g>
    </g>
    <g id="ytick_14">
     <g id="line2d_20">
      <g>
       <use style="stroke:#000000;stroke-width:0.8;" x="1036.8" xlink:href="#m22db1314cf" y="214.670985"/>
      </g>
     </g>
     <g id="text_25">
      <!-- 70 -->
      <defs>
       <path d="M 13.28125 2.34375 
Q 20.3125 32.03125 37.890625 61.328125 
L 4.296875 61.328125 
L 4.296875 68.359375 
L 46.09375 68.359375 
L 46.09375 61.71875 
Q 27.734375 32.03125 21.875 2.34375 
L 13.28125 2.34375 
z
" id="SimHei-55"/>
      </defs>
      <g transform="translate(1043.8 218.108485)scale(0.1 -0.1)">
       <use xlink:href="#SimHei-55"/>
       <use x="50" xlink:href="#SimHei-48"/>
      </g>
     </g>
    </g>
    <g id="ytick_15">
     <g id="line2d_21">
      <g>
       <use style="stroke:#000000;stroke-width:0.8;" x="1036.8" xlink:href="#m22db1314cf" y="152.420035"/>
      </g>
     </g>
     <g id="text_26">
      <!-- 80 -->
      <g transform="translate(1043.8 155.857535)scale(0.1 -0.1)">
       <use xlink:href="#SimHei-56"/>
       <use x="50" xlink:href="#SimHei-48"/>
      </g>
     </g>
    </g>
    <g id="ytick_16">
     <g id="line2d_22">
      <g>
       <use style="stroke:#000000;stroke-width:0.8;" x="1036.8" xlink:href="#m22db1314cf" y="90.169084"/>
      </g>
     </g>
     <g id="text_27">
      <!-- 90 -->
      <defs>
       <path d="M 12.5 1.171875 
Q 21.09375 15.625 26.5625 27.34375 
Q 16.796875 25.78125 10.34375 29.875 
Q 3.90625 33.984375 2.53125 41.015625 
Q 1.171875 48.046875 2.734375 53.703125 
Q 4.296875 59.375 7.609375 63.078125 
Q 10.9375 66.796875 15.625 68.359375 
Q 20.3125 69.921875 24.015625 69.921875 
Q 27.734375 69.921875 31.640625 68.359375 
Q 35.546875 66.796875 38.671875 63.671875 
Q 41.796875 60.546875 42.96875 57.21875 
Q 44.140625 53.90625 44.140625 48.625 
Q 44.140625 43.359375 40.234375 35.15625 
Q 36.328125 26.953125 21.09375 1.171875 
z
M 9.765625 50 
Q 10.9375 39.84375 14.640625 36.515625 
Q 18.359375 33.203125 22.65625 33.59375 
Q 26.953125 33.984375 29.484375 35.9375 
Q 32.03125 37.890625 34.375 42.578125 
Q 35.9375 48.4375 35.15625 52.53125 
Q 34.375 56.640625 31.046875 59.375 
Q 27.734375 62.109375 23.828125 62.109375 
Q 21.484375 62.5 17.765625 60.9375 
Q 14.0625 59.375 11.90625 54.6875 
Q 9.765625 50 10.9375 39.84375 
z
" id="SimHei-57"/>
      </defs>
      <g transform="translate(1043.8 93.606584)scale(0.1 -0.1)">
       <use xlink:href="#SimHei-57"/>
       <use x="50" xlink:href="#SimHei-48"/>
      </g>
     </g>
    </g>
    <g id="text_28">
     <!-- 同比增速（%） -->
     <defs>
      <path d="M 91.015625 76.953125 
Q 90.234375 71.09375 90.234375 62.109375 
L 90.234375 -0.78125 
Q 90.234375 -6.25 86.328125 -7.609375 
Q 82.421875 -8.984375 73.828125 -9.765625 
Q 73.828125 -6.25 70.703125 -0.78125 
Q 76.953125 -0.78125 79.6875 -0.1875 
Q 82.421875 0.390625 82.421875 3.125 
L 82.421875 69.53125 
L 17.96875 69.53125 
L 17.96875 -9.375 
L 8.984375 -9.375 
Q 9.375 -3.90625 9.765625 3.125 
L 9.765625 62.109375 
Q 9.765625 71.484375 9.375 76.953125 
L 91.015625 76.953125 
z
M 68.359375 39.84375 
Q 67.578125 35.546875 67.578125 26.5625 
Q 67.578125 17.96875 68.359375 11.328125 
L 31.640625 11.328125 
Q 32.03125 18.359375 32.03125 27.34375 
Q 32.03125 36.328125 31.640625 39.84375 
L 68.359375 39.84375 
z
M 64.0625 58.59375 
Q 71.875 58.59375 75.390625 58.984375 
L 75.390625 51.171875 
Q 71.484375 51.5625 63.671875 51.5625 
L 38.28125 51.5625 
Q 28.90625 51.5625 25 51.171875 
L 25 58.984375 
Q 29.296875 58.59375 38.671875 58.59375 
z
M 60.546875 17.96875 
L 60.546875 33.59375 
L 39.453125 33.59375 
L 39.453125 17.96875 
z
" id="SimHei-21516"/>
      <path d="M 58.984375 79.6875 
Q 58.59375 71.484375 58.59375 64.0625 
L 58.59375 47.65625 
Q 76.953125 56.25 85.546875 65.234375 
Q 88.671875 60.9375 92.1875 57.421875 
Q 87.5 54.6875 78.703125 49.796875 
Q 69.921875 44.921875 58.59375 39.84375 
L 58.59375 7.03125 
Q 58.59375 1.5625 63.28125 1.5625 
L 78.125 1.5625 
Q 80.859375 1.5625 82.21875 3.90625 
Q 83.59375 6.25 85.15625 14.0625 
Q 88.28125 12.109375 94.140625 10.546875 
Q 91.40625 0 88.28125 -2.734375 
Q 85.15625 -5.46875 81.640625 -5.46875 
L 60.9375 -5.46875 
Q 50.78125 -5.46875 50.78125 4.296875 
L 50.78125 62.5 
Q 50.78125 71.09375 50.390625 79.6875 
L 58.984375 79.6875 
z
M 19.921875 77.734375 
Q 19.53125 71.484375 19.53125 62.5 
L 19.53125 49.21875 
L 28.90625 49.21875 
Q 36.328125 49.21875 44.921875 49.609375 
L 44.921875 41.40625 
Q 36.328125 41.796875 28.90625 41.796875 
L 19.53125 41.796875 
L 19.53125 7.421875 
Q 25.78125 10.15625 30.65625 12.6875 
Q 35.546875 15.234375 44.53125 19.921875 
Q 45.3125 14.84375 46.09375 11.71875 
Q 37.109375 7.421875 27.53125 2.734375 
Q 17.96875 -1.953125 14.453125 -5.078125 
Q 11.71875 -1.5625 8.984375 3.125 
Q 10.9375 4.6875 11.71875 9.375 
L 11.71875 61.71875 
Q 11.71875 71.09375 11.328125 77.734375 
L 19.921875 77.734375 
z
" id="SimHei-27604"/>
      <path d="M 85.546875 78.125 
Q 83.203125 75.390625 81.4375 72.0625 
Q 79.6875 68.75 78.515625 66.015625 
L 93.359375 66.015625 
Q 92.96875 62.109375 92.96875 55.078125 
L 92.96875 44.53125 
Q 92.96875 37.5 93.359375 33.203125 
L 39.0625 33.203125 
Q 39.453125 39.84375 39.453125 45.3125 
L 39.453125 56.25 
Q 39.453125 62.5 39.0625 66.015625 
L 71.484375 66.015625 
Q 75 75.78125 76.171875 82.03125 
L 85.546875 78.125 
z
M 89.84375 27.34375 
Q 89.453125 21.875 89.453125 17.1875 
L 89.453125 1.953125 
Q 89.453125 -4.6875 89.84375 -9.765625 
L 82.03125 -9.765625 
L 82.03125 -4.6875 
L 50.78125 -4.6875 
L 50.78125 -9.765625 
L 43.359375 -9.765625 
Q 43.75 -1.171875 43.75 1.171875 
L 43.75 16.796875 
Q 43.75 22.265625 43.359375 27.34375 
L 89.84375 27.34375 
z
M 39.0625 13.671875 
Q 31.640625 11.328125 21.484375 8.203125 
Q 11.328125 5.078125 7.03125 2.734375 
Q 5.078125 7.421875 3.125 10.546875 
Q 14.453125 13.28125 17.96875 14.453125 
L 17.96875 46.484375 
L 15.625 46.484375 
Q 10.15625 46.484375 4.296875 46.09375 
L 4.296875 53.125 
Q 10.15625 52.734375 15.625 52.734375 
L 17.96875 52.734375 
L 17.96875 66.40625 
Q 17.96875 72.265625 17.578125 77.734375 
L 25.78125 77.734375 
Q 25.390625 71.484375 25.390625 66.40625 
L 25.390625 52.734375 
L 28.125 52.734375 
Q 32.421875 52.734375 36.328125 53.125 
L 36.328125 46.09375 
Q 31.25 46.484375 28.125 46.484375 
L 25.390625 46.484375 
L 25.390625 16.40625 
Q 32.8125 18.359375 38.28125 19.921875 
z
M 85.546875 38.28125 
L 85.546875 60.546875 
L 69.140625 60.546875 
L 69.140625 38.28125 
z
M 62.109375 38.28125 
L 62.109375 60.546875 
L 46.484375 60.546875 
L 46.484375 38.28125 
z
M 82.03125 13.671875 
L 82.03125 21.09375 
L 50.78125 21.09375 
L 50.78125 13.671875 
z
M 82.03125 1.171875 
L 82.03125 7.8125 
L 50.78125 7.8125 
L 50.78125 1.171875 
z
M 59.765625 70.3125 
Q 56.25 68.75 53.515625 66.40625 
Q 51.5625 70.3125 45.703125 77.734375 
Q 48.4375 78.90625 51.5625 82.03125 
Q 55.078125 77.34375 59.765625 70.3125 
z
M 83.59375 54.6875 
Q 81.640625 50.390625 78.125 41.796875 
Q 74.609375 43.75 71.09375 44.921875 
Q 74.21875 50.78125 76.171875 57.421875 
Q 78.90625 55.859375 83.59375 54.6875 
z
M 47.65625 53.515625 
Q 50 55.078125 53.90625 56.640625 
Q 55.859375 53.125 59.375 44.921875 
Q 55.859375 43.359375 52.734375 42.1875 
Q 50.78125 48.4375 47.65625 53.515625 
z
" id="SimHei-22686"/>
      <path d="M 58.203125 71.875 
Q 58.203125 77.734375 57.8125 82.03125 
L 65.234375 82.03125 
Q 64.84375 78.125 64.84375 71.875 
L 80.859375 71.875 
Q 86.71875 71.875 92.578125 72.265625 
L 92.578125 65.234375 
Q 86.71875 65.625 80.859375 65.625 
L 64.84375 65.625 
L 64.84375 58.203125 
L 89.0625 58.203125 
Q 88.671875 51.953125 88.671875 46.09375 
Q 88.671875 40.234375 89.0625 34.375 
L 64.84375 34.375 
Q 64.84375 11.328125 65.234375 3.515625 
L 57.8125 3.515625 
Q 58.203125 11.328125 58.203125 30.078125 
Q 53.515625 23.046875 48.4375 17.578125 
Q 43.359375 12.109375 35.9375 6.640625 
Q 33.203125 9.765625 28.515625 12.109375 
Q 35.546875 14.84375 42.375 21.671875 
Q 49.21875 28.515625 51.953125 34.375 
L 34.375 34.375 
Q 34.765625 41.015625 34.765625 46.09375 
Q 34.765625 51.5625 34.375 58.203125 
L 58.203125 58.203125 
L 58.203125 65.625 
L 41.796875 65.625 
Q 36.328125 65.625 30.078125 65.234375 
L 30.078125 72.265625 
Q 36.328125 71.875 41.796875 71.875 
z
M 23.4375 44.921875 
Q 23.046875 37.5 23.046875 30.078125 
L 23.046875 8.59375 
Q 33.59375 -0.390625 58.203125 -0.578125 
Q 82.8125 -0.78125 96.875 1.5625 
Q 94.140625 -2.734375 93.75 -8.203125 
Q 61.328125 -8.59375 48.234375 -7.421875 
Q 35.15625 -6.25 28.125 -2.140625 
Q 21.09375 1.953125 17.375 -0.96875 
Q 13.671875 -3.90625 9.375 -9.375 
Q 7.421875 -5.859375 3.125 -3.125 
Q 7.421875 0.390625 15.625 6.25 
L 15.625 38.28125 
Q 10.546875 38.28125 4.296875 37.890625 
L 4.296875 45.3125 
Q 10.9375 44.921875 15.625 44.921875 
z
M 71.09375 32.03125 
Q 77.34375 26.5625 92.578125 14.453125 
Q 89.453125 12.109375 86.71875 8.59375 
Q 79.296875 15.625 66.40625 26.171875 
Q 68.75 28.515625 71.09375 32.03125 
z
M 58.203125 40.234375 
L 58.203125 51.953125 
L 41.796875 51.953125 
L 41.796875 40.234375 
z
M 81.25 40.234375 
L 81.25 51.953125 
L 64.84375 51.953125 
L 64.84375 40.234375 
z
M 17.1875 77.34375 
Q 22.265625 67.96875 25 60.15625 
Q 21.09375 58.59375 16.40625 56.640625 
Q 15.234375 63.28125 10.15625 75 
Q 14.0625 75.78125 17.1875 77.34375 
z
" id="SimHei-36895"/>
      <path d="M 21.875 51.953125 
Q 21.875 40.625 18.546875 37.5 
Q 15.234375 34.375 12.109375 34.375 
Q 8.984375 34.375 5.65625 37.5 
Q 2.34375 40.625 2.34375 51.953125 
Q 2.34375 63.28125 5.65625 66.40625 
Q 8.984375 69.53125 12.109375 69.53125 
Q 15.234375 69.53125 18.546875 66.40625 
Q 21.875 63.28125 21.875 51.953125 
z
M 41.015625 68.359375 
L 10.9375 1.171875 
L 7.8125 2.34375 
L 37.890625 69.53125 
z
M 46.484375 18.75 
Q 46.484375 7.421875 43.15625 4.296875 
Q 39.84375 1.171875 36.71875 1.171875 
Q 33.59375 1.171875 30.265625 4.296875 
Q 26.953125 7.421875 26.953125 18.75 
Q 26.953125 30.078125 30.265625 33.203125 
Q 33.59375 36.328125 36.71875 36.328125 
Q 39.84375 36.328125 43.15625 33.203125 
Q 46.484375 30.078125 46.484375 18.75 
z
M 15.625 51.953125 
Q 15.625 58.984375 14.84375 61.328125 
Q 14.0625 63.671875 12.109375 63.671875 
Q 10.15625 63.671875 9.375 61.328125 
Q 8.59375 58.984375 8.59375 51.953125 
Q 8.59375 44.921875 9.375 42.578125 
Q 10.15625 40.234375 12.109375 40.234375 
Q 14.0625 40.234375 14.84375 42.578125 
Q 15.625 44.921875 15.625 51.953125 
z
M 40.234375 18.75 
Q 40.234375 25.78125 39.453125 28.125 
Q 38.671875 30.46875 36.71875 30.46875 
Q 34.765625 30.46875 33.984375 28.125 
Q 33.203125 25.78125 33.203125 18.75 
Q 33.203125 11.71875 33.984375 9.375 
Q 34.765625 7.03125 36.71875 7.03125 
Q 38.671875 7.03125 39.453125 9.375 
Q 40.234375 11.71875 40.234375 18.75 
z
" id="SimHei-37"/>
     </defs>
     <g transform="translate(1065.729687 354.88)rotate(-90)scale(0.1 -0.1)">
      <use xlink:href="#SimHei-21516"/>
      <use x="100" xlink:href="#SimHei-27604"/>
      <use x="200" xlink:href="#SimHei-22686"/>
      <use x="300" xlink:href="#SimHei-36895"/>
      <use x="400" xlink:href="#SimHei-65288"/>
      <use x="500" xlink:href="#SimHei-37"/>
      <use x="550" xlink:href="#SimHei-65289"/>
     </g>
    </g>
   </g>
   <g id="line2d_23">
    <path clip-path="url(#p5012da1926)" d="M 234.419139 99.998182 
L 376.811483 209.882451 
L 519.203828 544.761818 
L 661.596172 542.525991 
L 803.988517 148.403844 
L 946.380861 451.754392 
" style="fill:none;stroke:#2070b4;stroke-linecap:square;stroke-width:1.5;"/>
   </g>
   <g id="patch_22">
    <path d="M 144 567 
L 144 77.76 
" style="fill:none;stroke:#000000;stroke-linecap:square;stroke-linejoin:miter;stroke-width:0.8;"/>
   </g>
   <g id="patch_23">
    <path d="M 1036.8 567 
L 1036.8 77.76 
" style="fill:none;stroke:#000000;stroke-linecap:square;stroke-linejoin:miter;stroke-width:0.8;"/>
   </g>
   <g id="patch_24">
    <path d="M 144 567 
L 1036.8 567 
" style="fill:none;stroke:#000000;stroke-linecap:square;stroke-linejoin:miter;stroke-width:0.8;"/>
   </g>
   <g id="patch_25">
    <path d="M 144 77.76 
L 1036.8 77.76 
" style="fill:none;stroke:#000000;stroke-linecap:square;stroke-linejoin:miter;stroke-width:0.8;"/>
   </g>
   <g id="text_29">
    <!-- 88.42% -->
    <defs>
     <path d="M 16.796875 1.953125 
L 7.8125 1.953125 
L 7.8125 10.546875 
L 16.796875 10.546875 
z
" id="SimHei-46"/>
    </defs>
    <g transform="translate(234.419139 93.77964)scale(0.1 -0.1)">
     <use xlink:href="#SimHei-56"/>
     <use x="50" xlink:href="#SimHei-56"/>
     <use x="100" xlink:href="#SimHei-46"/>
     <use x="150" xlink:href="#SimHei-52"/>
     <use x="200" xlink:href="#SimHei-50"/>
     <use x="250" xlink:href="#SimHei-37"/>
    </g>
   </g>
   <g id="text_30">
    <!-- 70.77% -->
    <g transform="translate(376.811483 203.652567)scale(0.1 -0.1)">
     <use xlink:href="#SimHei-55"/>
     <use x="50" xlink:href="#SimHei-48"/>
     <use x="100" xlink:href="#SimHei-46"/>
     <use x="150" xlink:href="#SimHei-55"/>
     <use x="200" xlink:href="#SimHei-55"/>
     <use x="250" xlink:href="#SimHei-37"/>
    </g>
   </g>
   <g id="text_31">
    <!-- 16.97% -->
    <g transform="translate(519.203828 538.56268)scale(0.1 -0.1)">
     <use xlink:href="#SimHei-49"/>
     <use x="50" xlink:href="#SimHei-54"/>
     <use x="100" xlink:href="#SimHei-46"/>
     <use x="150" xlink:href="#SimHei-57"/>
     <use x="200" xlink:href="#SimHei-55"/>
     <use x="250" xlink:href="#SimHei-37"/>
    </g>
   </g>
   <g id="text_32">
    <!-- 17.33% -->
    <g transform="translate(661.596172 536.321646)scale(0.1 -0.1)">
     <use xlink:href="#SimHei-49"/>
     <use x="50" xlink:href="#SimHei-55"/>
     <use x="100" xlink:href="#SimHei-46"/>
     <use x="150" xlink:href="#SimHei-51"/>
     <use x="200" xlink:href="#SimHei-51"/>
     <use x="250" xlink:href="#SimHei-37"/>
    </g>
   </g>
   <g id="text_33">
    <!-- 80.65% -->
    <g transform="translate(803.988517 142.148628)scale(0.1 -0.1)">
     <use xlink:href="#SimHei-56"/>
     <use x="50" xlink:href="#SimHei-48"/>
     <use x="100" xlink:href="#SimHei-46"/>
     <use x="150" xlink:href="#SimHei-54"/>
     <use x="200" xlink:href="#SimHei-53"/>
     <use x="250" xlink:href="#SimHei-37"/>
    </g>
   </g>
   <g id="text_34">
    <!-- 31.91% -->
    <g transform="translate(946.380861 445.55976)scale(0.1 -0.1)">
     <use xlink:href="#SimHei-51"/>
     <use x="50" xlink:href="#SimHei-49"/>
     <use x="100" xlink:href="#SimHei-46"/>
     <use x="150" xlink:href="#SimHei-57"/>
     <use x="200" xlink:href="#SimHei-49"/>
     <use x="250" xlink:href="#SimHei-37"/>
    </g>
   </g>
   <g id="legend_2">
    <g id="patch_26">
     <path d="M 917.8 130.595312 
L 1029.8 130.595312 
Q 1031.8 130.595312 1031.8 128.595312 
L 1031.8 115.3375 
Q 1031.8 113.3375 1029.8 113.3375 
L 917.8 113.3375 
Q 915.8 113.3375 915.8 115.3375 
L 915.8 128.595312 
Q 915.8 130.595312 917.8 130.595312 
z
" style="fill:#ffffff;opacity:0.8;stroke:#cccccc;stroke-linejoin:miter;"/>
    </g>
    <g id="line2d_24">
     <path d="M 919.8 121.845312 
L 939.8 121.845312 
" style="fill:none;stroke:#2070b4;stroke-linecap:square;stroke-width:1.5;"/>
    </g>
    <g id="line2d_25"/>
    <g id="text_35">
     <!-- 同比增速（右轴） -->
     <defs>
      <path d="M 53.515625 78.515625 
Q 51.5625 74.609375 50.78125 71.09375 
Q 50 67.578125 48.4375 62.5 
L 77.34375 62.5 
Q 83.59375 62.5 92.96875 62.890625 
L 92.96875 55.078125 
Q 85.9375 55.46875 76.953125 55.46875 
L 46.09375 55.46875 
Q 42.96875 46.09375 37.109375 36.328125 
L 83.203125 36.328125 
Q 82.8125 29.6875 82.8125 22.265625 
L 82.8125 3.90625 
Q 82.8125 -2.34375 83.203125 -10.546875 
L 74.609375 -10.546875 
L 74.609375 -3.515625 
L 34.765625 -3.515625 
L 34.765625 -10.546875 
L 26.5625 -10.546875 
Q 26.953125 -3.515625 26.953125 2.734375 
L 26.953125 21.875 
Q 23.046875 17.1875 19.328125 13.46875 
Q 15.625 9.765625 10.9375 5.859375 
Q 6.640625 10.15625 3.125 12.109375 
Q 7.8125 14.84375 12.5 19.140625 
Q 17.1875 23.4375 22.265625 29.09375 
Q 27.34375 34.765625 31.046875 41.40625 
Q 34.765625 48.046875 37.5 55.46875 
L 23.046875 55.46875 
Q 14.0625 55.46875 6.25 55.078125 
L 6.25 62.890625 
Q 14.0625 62.5 23.4375 62.5 
L 39.453125 62.5 
Q 42.96875 73.4375 43.75 80.859375 
Q 48.828125 79.296875 53.515625 78.515625 
z
M 74.609375 3.515625 
L 74.609375 29.296875 
L 34.765625 29.296875 
L 34.765625 3.515625 
z
" id="SimHei-21491"/>
     </defs>
     <g transform="translate(947.8 125.345312)scale(0.1 -0.1)">
      <use xlink:href="#SimHei-21516"/>
      <use x="100" xlink:href="#SimHei-27604"/>
      <use x="200" xlink:href="#SimHei-22686"/>
      <use x="300" xlink:href="#SimHei-36895"/>
      <use x="400" xlink:href="#SimHei-65288"/>
      <use x="500" xlink:href="#SimHei-21491"/>
      <use x="600" xlink:href="#SimHei-36724"/>
      <use x="700" xlink:href="#SimHei-65289"/>
     </g>
    </g>
   </g>
  </g>
 </g>
 <defs>
  <clipPath id="p5012da1926">
   <rect height="489.24" width="892.8" x="144" y="77.76"/>
  </clipPath>
 </defs>
</svg>
